<?xml version="1.0" encoding="utf-8"?>
<!-- Generator: Adobe Illustrator 22.1.0, SVG Export Plug-In . SVG Version: 6.00 Build 0)  -->
<svg version="1.1" id="Layer_1" xmlns="http://www.w3.org/2000/svg" xmlns:xlink="http://www.w3.org/1999/xlink" x="0px" y="0px"
	 viewBox="0 0 777.8 734.1" style="enable-background:new 0 0 777.8 734.1;" xml:space="preserve">
<style type="text/css">
	.st0{fill:#EC008C;}
	.st1{fill:#00AEEF;}
</style>
<polygon class="st0" points="777.8,42.7 336.8,179.4 336.8,136.8 777.8,0 "/>
<polygon class="st0" points="777.8,121.7 336.8,258.5 336.8,215.8 777.8,79.1 "/>
<polygon class="st0" points="777.8,200.8 336.8,337.6 336.8,294.9 777.8,158.1 "/>
<polygon class="st0" points="777.8,279.8 336.8,416.6 336.8,374 777.8,237.2 "/>
<polygon class="st0" points="365.6,444.1 365.6,420.5 1.6,533.3 1.6,575.9 336.8,472.1 336.8,495.7 777.8,358.9 777.8,316.2 "/>
<polygon class="st0" points="365.6,499.5 1.6,612.3 1.6,655 336.8,551.1 336.8,574.7 777.8,438 777.8,395.3 365.6,523.2 "/>
<polygon class="st0" points="365.6,578.6 1.6,691.4 1.6,734.1 336.8,630.2 336.8,653.8 777.8,517 777.8,474.4 365.6,602.2 "/>
<polygon class="st1" points="365.6,387.2 1.6,501.9 1.6,199.8 365.6,85.1 "/>
</svg>
