<svg xmlns="http://www.w3.org/2000/svg" viewBox="0 0 1632.1 984.89"><defs><style>.cls-1{isolation:isolate;}.cls-2{fill:#eb008b;}.cls-3{fill:#00adee;}.cls-4{fill:#ff0;mix-blend-mode:multiply;}.cls-5{font-size:279.49px;fill:#3a3a3a;font-family:HalyardDisplay-BoldItalic, Halyard Display;font-weight:700;font-style:italic;}.cls-6{letter-spacing:0em;}.cls-7{letter-spacing:0em;}.cls-8{letter-spacing:0em;}.cls-9{letter-spacing:-0.01em;}.cls-10{letter-spacing:-0.01em;}.cls-11{letter-spacing:0.01em;}.cls-12{letter-spacing:0em;}.cls-13{letter-spacing:0em;}.cls-14{letter-spacing:-0.01em;}</style></defs><title>generation_logo_rgb</title><g class="cls-1"><g id="Layer_1" data-name="Layer 1"><polygon class="cls-2" points="1625.94 36.11 1232.91 88.23 1239.07 52.12 1632.1 0 1625.94 36.11"/><polygon class="cls-2" points="1614.52 103.03 1221.5 155.15 1227.66 119.04 1620.68 66.92 1614.52 103.03"/><polygon class="cls-2" points="1603.11 169.95 1210.08 222.07 1216.24 185.96 1609.27 133.84 1603.11 169.95"/><polygon class="cls-2" points="1591.69 236.87 1198.67 288.99 1204.83 252.88 1597.85 200.76 1591.69 236.87"/><polygon class="cls-2" points="1580.28 303.8 1187.25 355.92 1193.41 319.81 1586.44 267.69 1580.28 303.8"/><polygon class="cls-2" points="1568.86 370.72 1175.84 422.84 1182 386.73 1575.02 334.61 1568.86 370.72"/><polygon class="cls-2" points="1557.45 437.64 1164.42 489.76 1170.58 453.65 1563.61 401.53 1557.45 437.64"/><polygon class="cls-3" points="1227.3 268.27 902.66 312.76 946.28 57.06 1270.91 12.56 1227.3 268.27"/><polygon class="cls-2" points="1216.34 332.51 891.97 375.45 898.13 339.34 1222.5 296.4 1216.34 332.51"/><polygon class="cls-2" points="1204.92 399.43 880.56 442.37 886.72 406.26 1211.08 363.32 1204.92 399.43"/><polygon class="cls-2" points="1193.51 466.36 869.14 509.3 875.3 473.19 1199.67 430.25 1193.51 466.36"/><circle class="cls-4" cx="914.96" cy="554.96" r="429.92"/><text class="cls-5" transform="translate(43.42 740.46) rotate(-5.41)"><tspan class="cls-6">g</tspan><tspan class="cls-7" x="158.19" y="0">e</tspan><tspan class="cls-8" x="308.83" y="0">n</tspan><tspan class="cls-7" x="463.94" y="0">e</tspan><tspan class="cls-9" x="614.58" y="0">r</tspan><tspan class="cls-10" x="719.95" y="0">a</tspan><tspan x="867.8" y="0">tio</tspan><tspan class="cls-11" x="1193.12" y="0">n</tspan><tspan x="1350.19" y="0">s</tspan></text><text class="cls-5" transform="translate(596.82 886.84) rotate(-5.41)">p<tspan class="cls-12" x="163.22" y="0">r</tspan><tspan class="cls-8" x="269.7" y="0">o</tspan><tspan class="cls-7" x="425.94" y="0">j</tspan><tspan class="cls-13" x="498.88" y="0">e</tspan><tspan class="cls-14" x="649.8" y="0">c</tspan><tspan x="792.89" y="0">t</tspan></text></g></g></svg>