<?xml version="1.0" encoding="utf-8"?>
<!-- Generator: Adobe Illustrator 23.0.1, SVG Export Plug-In . SVG Version: 6.00 Build 0)  -->
<svg version="1.1" id="Layer_1" xmlns="http://www.w3.org/2000/svg" xmlns:xlink="http://www.w3.org/1999/xlink" x="0px" y="0px"
	 viewBox="0 0 446 448" style="enable-background:new 0 0 446 448;" xml:space="preserve">
<style type="text/css">
	.st0{fill:#F2F2F2;}
	.st1{fill:#FFFFFF;stroke:#F2F2F2;stroke-miterlimit:10;}
	.st2{stroke:#F2F2F2;stroke-miterlimit:10;}
	.st3{fill:none;stroke:#F2F2F2;stroke-width:5;stroke-miterlimit:10;}
</style>
<rect x="-67" y="-42" width="537" height="569"/>
<g>
	<path class="st0" d="M173.6,192.75c-14.33,6.94-28.67,13.88-43,20.82c-1.63,0.79-0.7,3.11,0.87,3.2
		c11.04,0.6,22.07,1.19,33.11,1.79c-0.15-1.12-0.3-2.25-0.46-3.37c-18.04,5.97-36.08,11.95-54.12,17.92c-1.65,0.54-1.61,2.75,0,3.31
		c9.75,3.41,19.5,6.82,29.24,10.23c0-1.1,0-2.2,0-3.31c-17.14,5.61-34.29,11.23-51.43,16.84c-2.09,0.68-1.19,4,0.91,3.31
		c17.14-5.61,34.29-11.23,51.43-16.84c1.65-0.54,1.6-2.75,0-3.31c-9.75-3.41-19.5-6.82-29.24-10.23c0,1.1,0,2.2,0,3.31
		c18.04-5.97,36.08-11.95,54.12-17.92c1.85-0.61,1.5-3.26-0.46-3.37c-11.04-0.6-22.07-1.19-33.11-1.79c0.29,1.07,0.58,2.13,0.87,3.2
		c14.33-6.94,28.67-13.88,43-20.82C177.31,194.75,175.58,191.79,173.6,192.75L173.6,192.75z"/>
</g>
<g>
	<path class="st0" d="M241.59,195.71c14.33,6.94,28.67,13.88,43,20.82c0.29-1.07,0.58-2.13,0.87-3.2
		c-11.04,0.6-22.07,1.19-33.11,1.79c-1.94,0.1-2.32,2.75-0.46,3.37c18.04,5.97,36.08,11.95,54.12,17.92c0-1.1,0-2.2,0-3.31
		c-9.75,3.41-19.5,6.82-29.24,10.23c-1.6,0.56-1.65,2.77,0,3.31c17.14,5.61,34.29,11.23,51.43,16.84c2.1,0.69,3-2.62,0.91-3.31
		c-17.14-5.61-34.29-11.23-51.43-16.84c0,1.1,0,2.2,0,3.31c9.75-3.41,19.5-6.82,29.24-10.23c1.6-0.56,1.65-2.76,0-3.31
		c-18.04-5.97-36.08-11.95-54.12-17.92c-0.15,1.12-0.3,2.25-0.46,3.37c11.04-0.6,22.07-1.19,33.11-1.79c1.57-0.08,2.5-2.4,0.87-3.2
		c-14.33-6.94-28.67-13.88-43-20.82C241.34,191.8,239.6,194.75,241.59,195.71L241.59,195.71z"/>
</g>
<g>
	<path class="st0" d="M233.97,172.17c14.93-5.55,29.85-11.1,44.78-16.65c1.39-0.52,1.85-3.03,0-3.31
		c-10.93-1.64-21.86-3.28-32.79-4.92c0,1.1,0,2.2,0,3.31c18.53-4.24,37.05-8.48,55.58-12.71c1.36-0.31,1.76-2.51,0.41-3.13
		c-9.38-4.32-18.76-8.63-28.14-12.95c-0.14,1.04-0.27,2.09-0.41,3.13c7.95-1.79,15.91-3.58,23.86-5.38
		c2.15-0.48,1.24-3.79-0.91-3.31c-7.95,1.79-15.91,3.58-23.86,5.38c-1.36,0.31-1.76,2.51-0.41,3.13
		c9.38,4.32,18.76,8.63,28.14,12.95c0.14-1.04,0.27-2.09,0.41-3.13c-18.53,4.24-37.05,8.48-55.58,12.71c-1.57,0.36-1.7,3.05,0,3.31
		c10.93,1.64,21.86,3.28,32.79,4.92c0-1.1,0-2.2,0-3.31c-14.93,5.55-29.85,11.1-44.78,16.65
		C231.01,169.63,231.9,172.94,233.97,172.17L233.97,172.17z"/>
</g>
<g>
	<path class="st0" d="M202.54,150.07c6.9-14.35,13.81-28.7,20.71-43.05c0.67-1.39-0.82-3.43-2.35-2.35
		c-9.01,6.4-18.02,12.8-27.03,19.2c0.78,0.78,1.56,1.56,2.35,2.35c10.41-15.9,20.81-31.8,31.22-47.7c0.8-1.22-0.53-3.01-1.94-2.52
		c-9.75,3.4-19.5,6.79-29.26,10.19c0.65,0.84,1.29,1.68,1.94,2.52c9.93-15.06,19.86-30.12,29.78-45.18
		c1.22-1.85-1.75-3.57-2.96-1.73c-9.93,15.06-19.86,30.12-29.78,45.18c-0.8,1.21,0.54,3.01,1.94,2.52
		c9.75-3.4,19.5-6.79,29.26-10.19c-0.65-0.84-1.29-1.68-1.94-2.52c-10.41,15.9-20.81,31.8-31.22,47.7
		c-0.91,1.39,0.94,3.34,2.35,2.35c9.01-6.4,18.02-12.8,27.03-19.2c-0.78-0.78-1.56-1.56-2.35-2.35
		c-6.9,14.35-13.81,28.7-20.71,43.05C198.63,150.32,201.59,152.06,202.54,150.07L202.54,150.07z"/>
</g>
<g>
	<path class="st0" d="M186.62,166.86c-12-4.03-23.99-8.06-35.99-12.08c0,1.1,0,2.2,0,3.31c10.95-1.5,21.9-3,32.85-4.5
		c1.72-0.24,1.54-2.93,0-3.31c-18.47-4.48-36.94-8.95-55.41-13.43c0.14,1.04,0.27,2.09,0.41,3.13c9.44-4.2,18.87-8.39,28.31-12.59
		c1.37-0.61,0.94-2.81-0.41-3.13c-12.41-2.97-24.83-5.93-37.24-8.9c-2.15-0.51-3.06,2.79-0.91,3.31c12.41,2.97,24.83,5.93,37.24,8.9
		c-0.14-1.04-0.27-2.09-0.41-3.13c-9.44,4.2-18.87,8.39-28.31,12.59c-1.37,0.61-0.94,2.81,0.41,3.13
		c18.47,4.48,36.94,8.95,55.41,13.43c0-1.1,0-2.2,0-3.31c-10.95,1.5-21.9,3-32.85,4.5c-1.82,0.25-1.43,2.83,0,3.31
		c12,4.03,23.99,8.06,35.99,12.08C187.81,170.87,188.71,167.56,186.62,166.86L186.62,166.86z"/>
</g>
<g>
	<rect x="62.91" y="310.07" class="st0" width="111.55" height="3.43"/>
</g>
<g>
	<rect x="249.91" y="310.07" class="st0" width="111.55" height="3.43"/>
</g>
<g>
	<line class="st1" x1="211.76" y1="207.07" x2="211.76" y2="192.63"/>
	<g>
		<path class="st2" d="M212.57,207.07c0-4.81,0-9.63,0-14.44c0-0.84-1.64-0.84-1.64,0c0,4.81,0,9.63,0,14.44
			C210.94,207.91,212.57,207.91,212.57,207.07L212.57,207.07z"/>
	</g>
</g>
<g>
	<path class="st0" d="M262.12,357.78h-98.04c-0.82,0-1.17-1.05-0.52-1.54l74.78-56.19c1.04-0.78,0.49-2.45-0.82-2.45h-59.79
		c-0.78,0-1.15-0.95-0.59-1.48l49.58-46.85c0.85-0.8,0.28-2.23-0.89-2.23H189.8c-0.47,0-0.86-0.38-0.86-0.86v0
		c0-0.47,0.38-0.86,0.86-0.86h41.45c0.78,0,1.15,0.95,0.59,1.48l-49.46,46.73c-0.89,0.84-0.3,2.35,0.93,2.35h60.86
		c0.82,0,1.17,1.05,0.52,1.54l-75.99,57.1c-0.66,0.49-0.31,1.54,0.52,1.54h92.91c0.47,0,0.86,0.38,0.86,0.86l0,0
		C262.98,357.4,262.6,357.78,262.12,357.78z"/>
</g>
<circle class="st3" cx="211.75" cy="183.25" r="8.75"/>
<path class="st0" d="M159.37,374l41.54-162.56c0.18-0.71,0.82-1.21,1.56-1.21h18.7c0.73,0,1.37,0.5,1.56,1.21L264.26,374h3.54
	l-42.42-165.99c-0.18-0.71-0.82-1.21-1.56-1.21H199.8c-0.73,0-1.37,0.5-1.56,1.21L155.83,374H159.37z"/>
</svg>
