<?xml version="1.0" encoding="utf-8"?>
<!-- Generator: Adobe Illustrator 23.0.1, SVG Export Plug-In . SVG Version: 6.00 Build 0)  -->
<svg version="1.1" xmlns="http://www.w3.org/2000/svg" xmlns:xlink="http://www.w3.org/1999/xlink" x="0px" y="0px"
	 viewBox="0 0 446 448" style="enable-background:new 0 0 446 448;" xml:space="preserve">
<style type="text/css">
	.st0{fill:#FF00FF;}
	.st1{fill:#F2F2F2;}
	.st2{fill:none;stroke:#FFFFFF;stroke-width:8;stroke-linecap:round;stroke-linejoin:round;stroke-miterlimit:10;}
	.st3{fill:none;stroke:#FFFFFF;stroke-width:4;stroke-linecap:round;stroke-linejoin:round;stroke-miterlimit:10;}
	.st4{fill:none;stroke:#FFFFFF;stroke-width:6;stroke-linecap:round;stroke-linejoin:round;stroke-miterlimit:10;}
	.st5{fill:none;stroke:#FFFFFF;stroke-width:5;stroke-linecap:round;stroke-linejoin:round;stroke-miterlimit:10;}
</style>
<g id="Layer_1">
	<rect x="-67" y="-42" class="st0" width="537" height="569"/>
	<g>
		<path class="st1" d="M173.6,192.75c-14.33,6.94-28.67,13.88-43,20.82c-1.63,0.79-0.7,3.11,0.87,3.2
			c11.04,0.6,22.07,1.19,33.11,1.79c-0.15-1.12-0.3-2.25-0.46-3.37c-18.04,5.97-36.08,11.95-54.12,17.92
			c-1.65,0.54-1.61,2.75,0,3.31c9.75,3.41,19.5,6.82,29.24,10.23c0-1.1,0-2.2,0-3.31c-17.14,5.61-34.29,11.23-51.43,16.84
			c-2.09,0.68-1.19,4,0.91,3.31c17.14-5.61,34.29-11.23,51.43-16.84c1.65-0.54,1.6-2.75,0-3.31c-9.75-3.41-19.5-6.82-29.24-10.23
			c0,1.1,0,2.2,0,3.31c18.04-5.97,36.08-11.95,54.12-17.92c1.85-0.61,1.5-3.26-0.46-3.37c-11.04-0.6-22.07-1.19-33.11-1.79
			c0.29,1.07,0.58,2.13,0.87,3.2c14.33-6.94,28.67-13.88,43-20.82C177.31,194.75,175.58,191.79,173.6,192.75L173.6,192.75z"/>
	</g>
</g>
<g id="Layer_2">
	<polyline class="st2" points="156,373 200,211 223,211 265,371 	"/>
	<line class="st2" x1="58" y1="311" x2="170.15" y2="311.79"/>
	<line class="st2" x1="249.91" y1="311" x2="366" y2="311"/>
	<line class="st3" x1="212" y1="193" x2="212" y2="211"/>
	<circle class="st4" cx="212" cy="183" r="10"/>
	<polyline class="st4" points="87,263 139,245 112,236 164,217 133,215 174,194 	"/>
	<polyline class="st4" points="334,260 282,242 309,233 257,214 288,212 247,191 	"/>
	<polyline class="st4" points="102.98,90.55 153.33,112.75 125.68,119.51 175.94,142.71 144.88,142.16 184.02,166.45 	"/>
	<polyline class="st4" points="221.29,32.11 235.91,85.16 213.2,68.01 227,121.62 207.79,97.21 213.71,142.89 	"/>
	<polyline class="st4" points="233.48,161.55 286.71,147.6 260.48,136.56 313.79,121.61 283.03,117.23 325.52,99.45 	"/>
	<polyline class="st5" points="191,244.12 230.66,244.12 175.75,299.02 244.69,299.02 160.13,357.78 260.07,357.78 	"/>
</g>
</svg>
