<?xml version="1.0" encoding="utf-8"?>
<!-- Generator: Adobe Illustrator 23.0.1, SVG Export Plug-In . SVG Version: 6.00 Build 0)  -->
<svg version="1.1" id="Layer_1" xmlns="http://www.w3.org/2000/svg" xmlns:xlink="http://www.w3.org/1999/xlink" x="0px" y="0px"
	 viewBox="0 0 446 448" style="enable-background:new 0 0 446 448;" xml:space="preserve">
<style type="text/css">
	.st0{fill:none;stroke:#F2F2F2;stroke-width:6;stroke-miterlimit:10;}
	.st1{fill:none;stroke:#FFFFFF;stroke-width:8;stroke-miterlimit:10;}
	.st2{fill:#FFFFFF;}
</style>
<rect x="-72" y="-1" width="537" height="569"/>
<circle class="st0" cx="624.5" cy="-106.5" r="62.5"/>
<circle class="st0" cx="683" cy="-83" r="21"/>
<g>
	<path class="st1" d="M193.1,298.44V261.3c0-13.62-11.73-24.76-26.06-24.76h-13.54l-7.13,6.77c-10.14,9.63-26.72,9.63-36.86,0
		l-7.13-6.77H88.86c-14.33,0-26.06,11.14-26.06,24.76v37.14"/>
	<g>
		<path class="st2" d="M127.95,160.57c15.35,0,27.84,12.49,27.84,27.84s-12.49,27.84-27.84,27.84s-27.84-12.49-27.84-27.84
			S112.6,160.57,127.95,160.57 M127.95,152.57c-19.79,0-35.84,16.04-35.84,35.84s16.04,35.84,35.84,35.84
			c19.79,0,35.84-16.04,35.84-35.84S147.74,152.57,127.95,152.57L127.95,152.57z"/>
	</g>
</g>
<g>
	<path class="st1" d="M331.1,191.44V154.3c0-13.62-11.73-24.76-26.06-24.76h-13.54l-7.13,6.77c-10.14,9.63-26.72,9.63-36.86,0
		l-7.13-6.77h-13.54c-14.33,0-26.06,11.14-26.06,24.76v37.14"/>
	<g>
		<path class="st2" d="M265.95,53.57c15.35,0,27.84,12.49,27.84,27.84s-12.49,27.84-27.84,27.84s-27.84-12.49-27.84-27.84
			S250.6,53.57,265.95,53.57 M265.95,45.57c-19.79,0-35.84,16.04-35.84,35.84s16.04,35.84,35.84,35.84
			c19.79,0,35.84-16.04,35.84-35.84S285.74,45.57,265.95,45.57L265.95,45.57z"/>
	</g>
</g>
<g>
	<path class="st1" d="M380.1,373.44V336.3c0-13.62-11.73-24.76-26.06-24.76h-13.54l-7.13,6.77c-10.14,9.63-26.72,9.63-36.86,0
		l-7.13-6.77h-13.54c-14.33,0-26.06,11.14-26.06,24.76v37.14"/>
	<g>
		<path class="st2" d="M314.95,235.57c15.35,0,27.84,12.49,27.84,27.84s-12.49,27.84-27.84,27.84s-27.84-12.49-27.84-27.84
			S299.6,235.57,314.95,235.57 M314.95,227.57c-19.79,0-35.84,16.04-35.84,35.84s16.04,35.84,35.84,35.84
			c19.79,0,35.84-16.04,35.84-35.84S334.74,227.57,314.95,227.57L314.95,227.57z"/>
	</g>
</g>
</svg>
