<?xml version="1.0" encoding="utf-8"?>
<!-- Generator: Adobe Illustrator 23.0.1, SVG Export Plug-In . SVG Version: 6.00 Build 0)  -->
<svg version="1.1" id="Layer_1" xmlns="http://www.w3.org/2000/svg" xmlns:xlink="http://www.w3.org/1999/xlink" x="0px" y="0px"
	 viewBox="0 0 446 448" style="enable-background:new 0 0 446 448;" xml:space="preserve">
<style type="text/css">
	.st0{fill:#FF00FF;}
	.st1{fill:#FFFFFF;}
	.st2{fill:#F2F2F2;}
</style>
<rect x="-22.12" y="-51" class="st0" width="479" height="569"/>
<g>
	<path class="st1" d="M323.88,152v119h-213V152H323.88 M325.88,138h-217c-6.6,0-12,5.4-12,12v123c0,6.6,5.4,12,12,12h217
		c6.6,0,12-5.4,12-12V150C337.88,143.4,332.47,138,325.88,138L325.88,138z"/>
</g>
<g>
	<path class="st2" d="M356.32,297.23H240.25v4.39H194.5v-4.39H78.43c-0.74,1.11-1.18,2.42-1.18,3.82v8.83
		c0,3.91,3.34,7.12,7.41,7.12h265.42c4.08,0,7.41-3.2,7.41-7.12v-8.83C357.5,299.65,357.06,298.34,356.32,297.23z"/>
</g>
</svg>
