<?xml version="1.0" encoding="utf-8"?>
<!-- Generator: Adobe Illustrator 23.0.1, SVG Export Plug-In . SVG Version: 6.00 Build 0)  -->
<svg version="1.1" id="Layer_1" xmlns="http://www.w3.org/2000/svg" xmlns:xlink="http://www.w3.org/1999/xlink" x="0px" y="0px"
	 viewBox="0 0 446 448" style="enable-background:new 0 0 446 448;" xml:space="preserve">
<style type="text/css">
	.st0{fill:#FFFFFF;}
	.st1{fill:#F2F2F2;}
</style>
<rect x="-22.12" y="-51" width="479" height="569"/>
<g>
	<path class="st0" d="M325.88,147c1.63,0,3,1.37,3,3v123c0,1.63-1.37,3-3,3h-217c-1.63,0-3-1.37-3-3V150c0-1.63,1.37-3,3-3H325.88
		 M325.88,138h-217c-6.6,0-12,5.4-12,12v123c0,6.6,5.4,12,12,12h217c6.6,0,12-5.4,12-12V150C337.88,143.4,332.47,138,325.88,138
		L325.88,138z"/>
</g>
<g>
	<path class="st1" d="M356.32,294H240.25v2.67H194.5V294H78.43c-0.74,0.67-1.18,1.47-1.18,2.32v5.36c0,2.38,3.34,4.32,7.41,4.32
		h265.42c4.08,0,7.41-1.94,7.41-4.32v-5.36C357.5,295.47,357.06,294.67,356.32,294z"/>
</g>
</svg>
