<?xml version="1.0" encoding="utf-8"?>
<!-- Generator: Adobe Illustrator 23.0.1, SVG Export Plug-In . SVG Version: 6.00 Build 0)  -->
<svg version="1.1" id="Layer_1" xmlns="http://www.w3.org/2000/svg" xmlns:xlink="http://www.w3.org/1999/xlink" x="0px" y="0px"
	 viewBox="0 0 1920 1080" style="enable-background:new 0 0 1920 1080;" xml:space="preserve">
<style type="text/css">
	.st0{fill:#EB008B;}
	.st1{fill:#00ADEE;}
	.st2{fill:#FFFF00;}
	.st3{fill:#3A3A3A;}
</style>
<g>
	<polygon class="st0" points="1726.84,41.75 1333.82,93.87 1339.97,57.76 1733,5.64 	"/>
	<polygon class="st0" points="1715.43,108.67 1322.4,160.79 1328.56,124.68 1721.59,72.56 	"/>
	<polygon class="st0" points="1704.01,175.59 1310.99,227.71 1317.15,191.6 1710.17,139.48 	"/>
	<polygon class="st0" points="1692.6,242.52 1299.57,294.64 1305.73,258.53 1698.76,206.41 	"/>
	<polygon class="st0" points="1681.18,309.44 1288.16,361.56 1294.32,325.45 1687.34,273.33 	"/>
	<polygon class="st0" points="1669.77,376.36 1276.74,428.48 1282.9,392.37 1675.93,340.25 	"/>
	<polygon class="st0" points="1658.35,443.28 1265.33,495.4 1271.49,459.29 1664.51,407.17 	"/>
	<polygon class="st1" points="1328.2,273.91 1003.57,318.4 1047.18,62.7 1371.81,18.2 	"/>
	<polygon class="st0" points="1317.24,338.15 992.88,381.09 999.04,344.98 1323.4,302.04 	"/>
	<polygon class="st0" points="1305.83,405.07 981.46,448.02 987.62,411.91 1311.99,368.96 	"/>
	<polygon class="st0" points="1294.41,472 970.05,514.94 976.21,478.83 1300.57,435.89 	"/>
</g>
<circle class="st2" cx="1015.86" cy="560.6" r="429.92"/>
<g>
	<path class="st3" d="M184.68,698.17l-0.28,0.03c-5.84,0.55-8.94,3.37-9.74,6.82c-0.92,5.14,7.08,6.63,13.56,6.86
		c1.97,0.09,37.73,1.2,37.73,1.2c35.15,0.6,56.8,18.76,51.92,47.3c-4.25,26.23-28.72,40.62-63.77,43.94
		c-38.4,3.64-95.04-1.66-88.53-39.62c1.93-12.25,14.57-21.03,36.67-24.81c-13.95-2.05-26.48-9.84-23.83-26.38
		c1.7-11.67,13.87-19.56,28.63-23.77c-11.77-8.71-18.4-22.4-15.16-41.52c4.11-24.81,27.92-43.07,60.2-46.13
		c28.38-2.69,50.27,6.19,60.23,22.37c5.84-15.43,15.09-24.45,28.17-25.69c1.39-0.13,2.78-0.26,4.2-0.12l-6.47,41.32
		c-2.97-1.68-6.38-2.2-10-1.86c-3.9,0.37-7.16,1.52-10.03,3.76c0.37,3.89,0.18,7.84-0.54,12.12c-4.2,26.79-25.31,43.95-57.31,46.98
		C207.8,702.16,195.37,701.37,184.68,698.17z M181.22,753.52c-10.57,1-16.35,5.2-17.19,11.17c-1.99,14.51,40.94,14.37,51.52,13.37
		c13.36-1.26,19.72-5.24,20.81-11.52c0.73-7.09-3.61-11.45-24.72-11.98L181.22,753.52z M231.75,652.73
		c2.33-13.98-3.53-22.41-16.05-21.22c-8.9,0.84-13.97,6.66-16.48,18.68c-2.66,13.45,1.55,22.31,15.82,21.8
		C224.78,671.07,230.05,664.4,231.75,652.73z"/>
	<path class="st3" d="M302.01,656.46c6.3-40.18,34.47-65.87,72.31-69.45c52.31-4.96,71.57,29.44,66.24,74.01l-0.6,2.58l-91.54,8.67
		c0.75,16.77,10.92,23.39,25.94,21.97c11.41-1.08,19.51-7.46,23.67-16.84l38.12,11.27c-11.17,24.36-34.82,38.39-63.48,41.11
		C324.54,734.33,293.42,708.08,302.01,656.46z M351.39,647.29l43.13-4.08c1.2-11.06-2.32-24.48-19.57-22.85
		C362.15,621.57,355.15,630.65,351.39,647.29z"/>
	<path class="st3" d="M466.3,583.06l52.03-4.93l-2.58,14.28c8.15-11.72,19.79-19.28,34.54-20.68c33.94-3.21,50.31,21.34,43.64,57.63
		c-0.12,1.7-12.52,75.3-12.52,75.3l-52.86,5.01l13.14-77.6c1.98-11.7,0.12-22.47-13.79-21.15c-9.74,0.92-16.16,10.23-18.48,24.21
		l-13.14,77.6l-52.59,4.98L466.3,583.06z"/>
	<path class="st3" d="M606.4,627.62c6.3-40.18,34.47-65.87,72.31-69.45c52.31-4.96,71.57,29.44,66.24,74.01l-0.6,2.58l-91.54,8.67
		c0.75,16.77,10.92,23.39,25.94,21.97c11.41-1.08,19.51-7.46,23.67-16.84l38.12,11.27c-11.17,24.36-34.82,38.39-63.48,41.11
		C628.94,705.5,597.81,679.25,606.4,627.62z M655.78,618.46l43.13-4.08c1.2-11.06-2.32-24.48-19.57-22.85
		C666.54,592.73,659.54,601.82,655.78,618.46z"/>
	<path class="st3" d="M770.69,554.23l52.59-4.98l-4.33,25.4c6.71-18.04,18.59-28.99,38.62-30.89l7.51-0.71l-8.27,49.07
		c-2.84-0.29-19.25,1.26-21.2,1.45c-15.58,1.48-21.24,9.87-23.74,24.99l-11.22,65.35l-52.59,4.98L770.69,554.23z"/>
	<path class="st3" d="M855.52,637.71c3.9-27.04,29.95-36.52,56.75-41.03c18.26-2.85,34.06-4.91,37.05-11.93l0.17-1.14
		c1.75-11.11-6.99-14.5-16.73-13.57c-9.74,0.92-15.89,7.12-17.88,15.73l-0.6,2.58l-49.02-1.81c4.88-28.54,29.42-47.99,63.65-51.23
		c38.67-3.66,79.05,7.67,69.72,63.3l-11.56,67.63l-52.59,4.98l3.23-16.31c-8.88,12.91-22.36,21.77-39.89,23.43
		C870.01,680.98,851.04,664.53,855.52,637.71z M942.72,624.68l2.25-14.81c-4.04,1.79-8.97,3.1-13.93,4.13
		c-10.94,3-21.56,6.53-23.54,18.23c-1.18,8.25,4.38,13.62,14.12,12.7C931.08,644.03,939.68,637.04,942.72,624.68z"/>
	<path class="st3" d="M1015.46,622l9.82-59.32l-15.58,1.48l5.85-33.12l15.3-1.45l4.73-27.12l54.9-27.94l-8.44,50.21l20.87-1.98
		l-5.29,33.07l-21.98,2.08l-9.77,59.88c-0.64,5.11,1.55,7.43,6.83,6.93l15.58-1.48l-5.77,33.95l-32.28,3.06
		C1022.14,662.92,1009.4,652.9,1015.46,622z"/>
	<path class="st3" d="M1118.77,521.26l52.59-4.98l-22.62,134.65l-52.59,4.98L1118.77,521.26z M1127.37,466.83l53.14-5.03
		l-6.78,41.07l-53.14,5.03L1127.37,466.83z"/>
	<path class="st3" d="M1176.23,573.65c6.63-39.65,34.47-65.87,73.42-69.56c47.86-4.53,78.25,22.91,70.11,73.37
		c-6.66,39.37-34.52,65.31-73.47,69C1198.99,650.94,1168.15,624.67,1176.23,573.65z M1269.99,576.56
		c3.27-18.84,0.79-39.1-18.96-37.23c-12.52,1.19-20.95,12.93-25.02,35.22c-2.95,16.28-2.23,38.67,18.63,36.7
		C1257.16,610.06,1265.92,598.84,1269.99,576.56z"/>
	<path class="st3" d="M1346.65,499.68l52.03-4.93l-2.58,14.28c8.15-11.72,19.79-19.28,34.54-20.68
		c33.95-3.22,50.31,21.34,43.64,57.63c-0.12,1.7-12.52,75.3-12.52,75.3l-52.87,5.01l13.14-77.6c1.98-11.7,0.12-22.47-13.79-21.15
		c-9.74,0.92-16.16,10.23-18.48,24.21l-13.14,77.6l-52.59,4.98L1346.65,499.68z"/>
	<path class="st3" d="M1478,594.19l26.87-27.53c9.1,10.09,22.37,19.78,39.34,18.17c5.84-0.55,9.61-2.31,10.8-7.48
		c1.39-6.03-5.68-9.57-23.56-14.61c-24.21-6.69-42.03-19.88-38.91-46.28c3.91-23.95,28.07-38.59,55.89-41.23
		c25.6-2.42,51,4.99,68.01,24.44c0.08,0.83-24.88,24.81-24.88,24.81c-9.63-9.76-21.82-17.02-37.41-15.55
		c-5.57,0.53-9.53,3.15-10.5,7.73c-1.9,6.64,6.54,9.77,21.79,13.66c24.44,6.11,45.01,18.76,40.28,45.87
		c-4.33,25.39-27.99,39.43-56.09,42.09C1518.74,621.21,1492.95,612.71,1478,594.19z"/>
</g>
<g>
	<path class="st3" d="M745.57,867.42l-12.03,71.6l-52.31,4.96l31-185.41l52.59-4.98l-1.83,10.28c8.87-10.1,20.33-16.52,33.69-17.79
		c37.56-3.56,58.64,29.26,50.93,72.38c-6.63,39.65-29.91,66.56-60.24,69.43C768.45,889.68,753.65,881.54,745.57,867.42z
		 M794.52,818.15c4.07-22.28-0.59-35.88-17.29-34.3c-10.85,1.03-20.98,12.66-24.19,32.05c0.05,0.56-0.69,4.56-0.94,4.86
		c-3.31,21.37,1.52,33.82,18.77,32.19C783.11,851.79,791.2,836.43,794.52,818.15z"/>
	<path class="st3" d="M874.73,743.18l52.59-4.98l-4.33,25.4c6.71-18.04,18.59-28.99,38.62-30.89l7.51-0.71l-8.27,49.07
		c-2.83-0.29-19.25,1.26-21.2,1.45c-15.58,1.48-21.24,9.87-23.74,24.99l-11.21,65.35l-52.59,4.98L874.73,743.18z"/>
	<path class="st3" d="M966.14,792.35c6.63-39.65,34.47-65.87,73.42-69.56c47.86-4.53,78.25,22.91,70.11,73.37
		c-6.66,39.37-34.52,65.31-73.47,69C988.9,869.64,958.06,843.37,966.14,792.35z M1059.9,795.26c3.27-18.84,0.79-39.1-18.97-37.23
		c-12.52,1.19-20.95,12.93-25.02,35.22c-2.95,16.28-2.23,38.67,18.63,36.69C1047.07,828.76,1055.83,817.54,1059.9,795.26z"/>
	<path class="st3" d="M1093.08,869.88l8.07-0.76c8.35-0.79,10.94-3,12.87-15.26l22.82-135.51l52.31-4.96l-22.82,135.51
		c-7.18,42.79-30.67,52.59-67.12,56.05l-11.96,1.13L1093.08,869.88z M1145.71,663.89l52.86-5.01l-6.5,41.04l-53.14,5.03
		L1145.71,663.89z"/>
	<path class="st3" d="M1194.57,770.71c6.3-40.18,34.47-65.87,72.31-69.45c52.31-4.96,71.57,29.44,66.24,74.01l-0.6,2.58l-91.54,8.67
		c0.75,16.77,10.92,23.39,25.94,21.97c11.41-1.08,19.5-7.46,23.67-16.84l38.12,11.27c-11.17,24.36-34.82,38.39-63.48,41.11
		C1217.11,848.58,1185.99,822.34,1194.57,770.71z M1243.95,761.54l43.13-4.08c1.2-11.06-2.32-24.48-19.57-22.85
		C1254.71,735.82,1247.71,744.9,1243.95,761.54z"/>
	<path class="st3" d="M1344.4,755.11c6.43-38.79,34.02-64.7,73.25-68.42c39.79-3.77,64.83,14.63,64.32,47.81l-47.55,10.68
		c0.48-12.68-2.82-23.88-15.34-22.69c-11.69,1.11-20.3,10.91-24.49,34.88c-3.67,20.56-0.42,37.09,16.56,35.49
		c9.74-0.92,16.29-8.84,20.64-22.17l45.78,9.14c-9.16,27.82-33.48,46.68-64.64,49.64C1362.01,834.3,1336.21,801.93,1344.4,755.11z"
		/>
	<path class="st3" d="M1494.28,775.45l9.82-59.32l-15.58,1.48l5.85-33.12l15.3-1.45l4.73-27.12l54.9-27.94l-8.44,50.21l20.87-1.98
		l-5.29,33.07l-21.98,2.08l-9.77,59.88c-0.64,5.11,1.55,7.43,6.83,6.93l15.58-1.48l-5.77,33.95l-32.27,3.06
		C1500.96,816.36,1488.22,806.34,1494.28,775.45z"/>
</g>
</svg>
