<svg id="Layer_1" data-name="Layer 1" xmlns="http://www.w3.org/2000/svg" viewBox="0 0 421 423"><defs><style>.cls-1{fill:#ec008c;}.cls-2{fill:none;stroke:#ec008c;stroke-linecap:round;stroke-miterlimit:10;stroke-width:20px;}</style></defs><title>generations_project_icons</title><path class="cls-1" d="M211.5,32A178.5,178.5,0,0,1,337.72,336.72,178.5,178.5,0,0,1,85.28,84.28,177.36,177.36,0,0,1,211.5,32m0-20C101.87,12,13,100.87,13,210.5S101.87,409,211.5,409,410,320.13,410,210.5,321.13,12,211.5,12Z"/><path class="cls-2" d="M102,330l55.39-94.18a2.48,2.48,0,0,1,4.69.18l11.84,40a2.48,2.48,0,0,0,4.69.18l58.58-113.82a2.48,2.48,0,0,1,4.72.28L253.76,210a2.47,2.47,0,0,0,4.78.08L305,97"/><path class="cls-2" d="M259,122l35.92-25a9.55,9.55,0,0,1,14.39,4.49L323,138"/></svg>