<svg id="Layer_1" data-name="Layer 1" xmlns="http://www.w3.org/2000/svg" viewBox="0 0 421 423"><defs><style>.cls-1{fill:#00aeef;}.cls-2{fill:none;stroke:#00aeef;stroke-miterlimit:10;stroke-width:20px;}</style></defs><title>generations_project_icons</title><path class="cls-1" d="M211.5,32A178.5,178.5,0,0,1,337.72,336.72,178.5,178.5,0,0,1,85.28,84.28,177.36,177.36,0,0,1,211.5,32m0-20C101.87,12,13,100.87,13,210.5S101.87,409,211.5,409,410,320.13,410,210.5,321.13,12,211.5,12Z"/><path class="cls-2" d="M283.56,86.28,154.5,139.59a28.09,28.09,0,0,0-19.92,24.13L103.45,305a28.09,28.09,0,0,0,36,29.71L268.5,277.41a28.09,28.09,0,0,0,19.92-24.13L319.55,116A28.09,28.09,0,0,0,283.56,86.28Z"/><circle class="cls-1" cx="211.5" cy="210.5" r="22.5"/></svg>