<svg id="Layer_1" data-name="Layer 1" xmlns="http://www.w3.org/2000/svg" viewBox="0 0 421 423"><defs><style>.cls-1{fill:#231f20;}.cls-2{fill:none;stroke:#231f20;stroke-linecap:round;stroke-miterlimit:10;stroke-width:15px;}</style></defs><title>generations_project_icons</title><path class="cls-1" d="M211.5,32A178.5,178.5,0,0,1,337.72,336.72,178.5,178.5,0,0,1,85.28,84.28,177.36,177.36,0,0,1,211.5,32m0-20C101.87,12,13,100.87,13,210.5S101.87,409,211.5,409,410,320.13,410,210.5,321.13,12,211.5,12Z"/><path class="cls-2" d="M145,312l127-15"/><path class="cls-2" d="M157,158,283,299"/><path class="cls-2" d="M157,158,272,96"/><rect class="cls-1" x="255.8" y="271.8" width="50.4" height="50.4" rx="25.2"/><rect class="cls-1" x="131.8" y="132.8" width="50.4" height="50.4" rx="25.2"/><rect class="cls-1" x="251.59" y="75.59" width="40.82" height="40.82" rx="20.41"/><rect class="cls-1" x="117" y="284" width="56" height="56" rx="28"/></svg>